<?xml version="1.0" encoding="UTF-8" standalone="no"?>
<svg width="100px" height="100px" viewBox="0 0 100 100" version="1.1" xmlns="http://www.w3.org/2000/svg" xmlns:xlink="http://www.w3.org/1999/xlink" xmlns:sketch="http://www.bohemiancoding.com/sketch/ns">
    <!-- Generator: Sketch 3.3.2 (12043) - http://www.bohemiancoding.com/sketch -->
    <title>Shape + Shape</title>
    <desc>Created with Sketch.</desc>
    <defs></defs>
    <g id="Page-1" stroke="none" stroke-width="1" fill="none" fill-rule="evenodd" sketch:type="MSPage">
        <g id="Add-page-menu" sketch:type="MSArtboardGroup" transform="translate(-238.000000, -509.000000)" fill="#49B29E">
            <g id="Shape-+-Shape" sketch:type="MSLayerGroup" transform="translate(238.000000, 509.000000)">
                <path d="M37.2708252,52.3638346 L9.16196583,80.4552947 C6.00294264,83.6269112 5.80953306,88.546153 8.77514666,91.5235889 L15.1576629,97.9315487 C18.1232765,100.844258 23.0229859,100.650077 26.1820091,97.5431875 L54.3553384,69.3870005 C57.5143616,66.215384 57.6433013,61.2961422 54.7421576,58.3187063 L54.3553384,57.995072 L83.302306,29.0621625 L87.6217867,30.4214267 L100,12.3626309 L94.3266522,6.66666667 L76.2750911,19.0294982 L77.5644884,23.4309251 L48.6819906,52.2991077 L48.3596413,51.9754734 C45.3940277,48.9980375 40.4298484,49.1922181 37.2708252,52.3638346 L37.2708252,52.3638346 Z" id="Shape" sketch:type="MSShapeGroup"></path>
                <path d="M53.1845541,39.9787714 L55.9911407,37.0940817 L54.7214944,35.8194513 C57.12714,26.6957814 54.8551414,16.4987387 47.7718516,8.98512819 C39.1516215,-0.00437005238 26.1878647,-2.35237333 15.696577,2.41071903 L31.5337438,18.5113129 C33.337978,20.3897155 33.4048015,23.3414911 31.6005673,25.1528079 L25.1186889,31.5930454 C23.3812782,33.4043622 20.3742212,33.3372764 18.569987,31.5259596 L2.39870271,15.693709 C-2.34576499,26.2261808 -0.00694288736,39.1737417 9.01422809,47.7607251 C13.4914018,51.987131 18.9041044,54.5363917 24.5172775,55.3414214 L41.1563262,38.7712269 C44.1633832,41.7230024 48.9746744,41.7230024 51.9817313,38.7712269 L53.1845541,39.9787714 L53.1845541,39.9787714 Z M61.7379607,79.9619128 L79.5798322,97.4042229 C83.3219476,101.026856 89.4697085,100.825599 93.2786474,97.001708 L96.9539393,93.3119886 C100.829702,89.4210117 101.030172,83.3162032 97.4217037,79.559398 L73.4320712,55.0059923 L70.8259552,57.6223388 L72.0956015,58.8298834 C69.0885445,61.7816589 69.0885445,66.6789229 72.0956015,69.6306984 L61.7379607,79.9619128 L61.7379607,79.9619128 Z" id="Shape" sketch:type="MSShapeGroup"></path>
            </g>
        </g>
    </g>
</svg>