<?xml version="1.0" encoding="UTF-8" standalone="no"?>
<svg width="100px" height="107px" viewBox="0 0 100 107" version="1.1" xmlns="http://www.w3.org/2000/svg" xmlns:xlink="http://www.w3.org/1999/xlink" xmlns:sketch="http://www.bohemiancoding.com/sketch/ns">
    <g id="Shape-+-Shape" fill="#49B29E">
        <path d="M0,14.2666667 L0,21.4 L0,28.5333333 L0,99.8666667 L7.14285714,107 L85.7142857,107 L92.8571429,99.8666667 L92.8571429,49.9333333 L85.7142857,57.0666667 L85.7142857,99.8666667 L7.14285714,99.8666667 L7.14285714,28.5333333 L21.4285714,28.5333333 L21.4285714,21.4 L7.14285714,21.4 L7.14285714,14.2666667 L21.4285714,14.2666667 L21.4285714,7.13333333 L7.14285714,7.13333333 L0,14.2666667 L0,14.2666667 Z M28.5714286,28.5333333 L42.8571429,28.5333333 L50,21.4 L57.1428571,14.2666667 L64.2857143,7.13333333 L64.2857143,0 L28.5714286,0 L28.5714286,7.13333333 L28.5714286,14.2666667 L28.5714286,21.4 L28.5714286,28.5333333 L28.5714286,28.5333333 Z M42.8571429,7.13333333 L46.4285714,7.13333333 L50,7.13333333 L50,10.7 L50,14.2666667 L46.4285714,14.2666667 L42.8571429,14.2666667 L42.8571429,10.7 L42.8571429,7.13333333 L42.8571429,7.13333333 Z" id="Shape" sketch:type="MSShapeGroup"></path>
        <path d="M21.4285714,71.3333333 L35.7142857,85.6 L85.7142857,35.6666667 L71.4285714,21.4 L21.4285714,71.3333333 L21.4285714,71.3333333 Z M92.8571429,28.5333333 L100,21.4 L100,14.2666667 L92.8571429,7.13333333 L85.7142857,7.13333333 L78.5714286,14.2666667 L92.8571429,28.5333333 L92.8571429,28.5333333 Z M21.4285714,78.4666667 L14.2857143,92.7333333 L28.5714286,85.6 L21.4285714,78.4666667 L21.4285714,78.4666667 Z" id="Shape" sketch:type="MSShapeGroup"></path>
    </g>
</svg>