<?xml version="1.0" encoding="UTF-8" standalone="no"?>
<svg width="100px" height="100px" viewBox="0 0 100 100" version="1.1" xmlns="http://www.w3.org/2000/svg" xmlns:xlink="http://www.w3.org/1999/xlink" xmlns:sketch="http://www.bohemiancoding.com/sketch/ns">
    <!-- Generator: Sketch 3.3.2 (12043) - http://www.bohemiancoding.com/sketch -->
    <title>Shape + Shape</title>
    <desc>Created with Sketch.</desc>
    <defs></defs>
    <g id="Page-1" stroke="none" stroke-width="1" fill="none" fill-rule="evenodd" sketch:type="MSPage">
        <g id="Add-page-menu" sketch:type="MSArtboardGroup" transform="translate(-54.000000, -509.000000)" fill="#49B29E">
            <g id="Shape-+-Shape" sketch:type="MSLayerGroup" transform="translate(54.000000, 509.000000)">
                <path d="M0,7.14285714 L0,14.2857143 L0,21.4285714 L0,92.8571429 L7.14285714,100 L92.8571429,100 L100,92.8571429 L100,21.4285714 L100,14.2857143 L100,7.14285714 L92.8571429,0 L7.14285714,0 L0,7.14285714 L0,7.14285714 Z M7.14285714,92.8571429 L7.14285714,21.4285714 L92.8571429,21.4285714 L92.8571429,92.8571429 L7.14285714,92.8571429 L7.14285714,92.8571429 Z M7.14285714,14.2857143 L7.14285714,7.14285714 L92.8571429,7.14285714 L92.8571429,14.2857143 L7.14285714,14.2857143 L7.14285714,14.2857143 Z" id="Shape" sketch:type="MSShapeGroup"></path>
                <path d="M43.1428571,57.5714286 L43.1428571,79 L36,79 L36,86.1428571 L43.1428571,86.1428571 L57.4285714,86.1428571 L64.5714286,86.1428571 L64.5714286,79 L57.4285714,79 L57.4285714,57.5714286 L57.4285714,50.4285714 L43.1428571,50.4285714 L36,50.4285714 L36,57.5714286 L43.1428571,57.5714286 L43.1428571,57.5714286 Z M43.1428571,29 L43.1428571,43.2857143 L57.4285714,43.2857143 L57.4285714,29 L43.1428571,29 L43.1428571,29 Z" id="Shape" sketch:type="MSShapeGroup"></path>
            </g>
        </g>
    </g>
</svg>